<?xml version="1.0" encoding="UTF-8" standalone="no"?>
<!DOCTYPE svg PUBLIC "-//W3C//DTD SVG 1.1//EN" "http://www.w3.org/Graphics/SVG/1.1/DTD/svg11.dtd">
<svg width="100%" height="100%" viewBox="0 0 711 711" version="1.1" xmlns="http://www.w3.org/2000/svg" xmlns:xlink="http://www.w3.org/1999/xlink" xml:space="preserve" xmlns:serif="http://www.serif.com/" style="fill-rule:evenodd;clip-rule:evenodd;stroke-linejoin:round;stroke-miterlimit:1.5;">
    <g transform="matrix(1,0,0,1,-1788.28,-348.531)">
        <g transform="matrix(1,0,0,1,52.907,105.203)">
            <g transform="matrix(1.12686,0,0,0.991905,-321.09,-140.039)">
                <rect x="1824.95" y="386.495" width="630.708" height="716.544" style="fill:none;"/>
                <clipPath id="_clip1">
                    <rect x="1824.95" y="386.495" width="630.708" height="716.544"/>
                </clipPath>
                <g clip-path="url(#_clip1)">
                    <g transform="matrix(1.00061,0,0,1.13675,1883.65,452.23)">
                        <g transform="matrix(0.947619,0,0,1.00892,-1208.37,71.6778)">
                            <ellipse cx="1545.84" cy="184.026" rx="134.58" ry="126.554" style="fill:rgb(77,162,219);"/>
                            <clipPath id="_clip2">
                                <ellipse cx="1545.84" cy="184.026" rx="134.58" ry="126.554"/>
                            </clipPath>
                            <g clip-path="url(#_clip2)">
                                <g transform="matrix(0.933059,0,0,0.928755,1311.4,-61.8259)">
                                    <path d="M296.411,166.345C296.765,150.658 265.421,153.648 249.118,150.257C183.893,136.688 200.708,180.164 187.468,217.28C181.647,233.6 166.216,247.443 187.468,257.345C200.352,263.348 230.772,220.555 251.032,221.389C297.966,223.322 295.747,195.85 296.411,166.345Z" style="fill:rgb(99,218,173);fill-rule:nonzero;"/>
                                </g>
                                <g transform="matrix(1.05528,0,0,0.99116,-78.2887,0.508082)">
                                    <path d="M1499.17,190.067C1509.54,190.067 1531.77,194.485 1545.05,200.886C1558.14,207.201 1566.61,214.725 1569.16,223.353C1571.71,231.982 1556.65,239.002 1550.84,246.944C1545.21,254.642 1546.07,258.863 1543.11,266.805C1540.28,274.371 1550.48,301.848 1542.56,300.31C1534.61,298.769 1520.76,283.031 1512.93,272.125C1506.71,263.455 1497.99,243.529 1495.62,234.876C1493.5,227.138 1476.37,222.665 1474.24,217C1472.58,212.604 1468.21,200.099 1470.87,196.225C1473.71,192.076 1492.63,190.067 1499.17,190.067Z" style="fill:rgb(99,218,173);"/>
                                </g>
                                <g transform="matrix(0.695337,0.745568,-0.793798,0.653089,532.032,-1082.09)">
                                    <path d="M1499.17,190.067C1509.54,190.067 1531.77,194.485 1545.05,200.886C1558.14,207.201 1566.61,214.725 1569.16,223.353C1571.71,231.982 1556.65,239.002 1550.84,246.944C1545.21,254.642 1546.07,258.863 1543.11,266.805C1540.28,274.371 1550.48,301.848 1542.56,300.31C1534.61,298.769 1520.76,283.031 1512.93,272.125C1506.71,263.455 1497.99,243.529 1495.62,234.876C1493.5,227.138 1476.37,222.665 1474.24,217C1472.58,212.604 1468.21,200.099 1470.87,196.225C1473.71,192.076 1492.63,190.067 1499.17,190.067Z" style="fill:rgb(99,218,173);"/>
                                </g>
                                <g transform="matrix(0.971586,0,0,0.945355,62.685,11.8193)">
                                    <path d="M1637.47,121.61C1625.21,124.129 1604.84,150.21 1593.02,158.95C1574.77,172.433 1575.06,190.26 1610.61,193.737C1619.95,194.651 1641.99,164.347 1648.14,170.508C1658.9,181.292 1647.77,177.773 1645.7,185.732C1642.65,197.454 1638.27,213.093 1638.72,222.313C1639.69,241.898 1653.97,244.001 1655.25,245.22C1666.71,256.138 1696.25,213.197 1679.39,173.53C1675.33,163.985 1673.36,152.222 1666.59,143.836C1659.6,135.183 1649.43,119.152 1637.47,121.61Z" style="fill:rgb(99,218,173);"/>
                                </g>
                            </g>
                        </g>
                        <g transform="matrix(0.886881,0,0,0.886881,-1108.47,93.135)">
                            <path d="M1630.8,74.324C1662.59,100.736 1682.85,140.595 1682.85,185.155C1682.85,264.613 1618.42,329.123 1539.06,329.123C1491.66,329.123 1449.59,306.115 1423.39,270.665C1443.32,280.187 1465.62,285.519 1489.16,285.519C1573.6,285.519 1642.16,216.877 1642.16,132.329C1642.16,111.801 1638.12,92.211 1630.8,74.324Z" style="fill:rgb(23,85,134);fill-opacity:0.26;"/>
                        </g>
                    </g>
                    <g transform="matrix(0.88742,0,0,1.00816,202.086,-18.2537)">
                        <circle cx="2184.1" cy="756.845" r="277.049" style="fill:none;stroke:rgb(170,245,208);stroke-width:12.08px;"/>
                    </g>
                    <g transform="matrix(0.88742,0,0,1.00816,1415.34,215.068)">
                        <path d="M864.551,740.278C867.318,742.407 869.984,744.722 872.513,747.267C875.372,750.147 877.963,753.197 880.285,756.378L880.407,756.545C890.727,770.772 895.643,787.678 895.212,804.47L895.206,804.706C894.922,814.694 892.738,824.633 888.652,833.939L888.562,834.144C884.726,842.826 879.261,850.957 872.121,858.043C854.716,875.334 831.236,882.743 808.609,880.343L808.406,880.321C791.195,878.447 774.494,870.893 761.345,857.654C748.639,844.861 741.281,828.776 739.217,812.172L739.184,811.9C736.391,788.741 743.905,764.585 761.734,746.876C767.255,741.396 773.392,736.925 779.912,733.423L780.107,733.319C788.374,728.916 797.258,726.087 806.326,724.854L806.562,724.822C826.593,722.163 847.442,727.258 864.283,740.073L864.551,740.278Z" style="fill:rgb(218,218,218);fill-rule:nonzero;"/>
                        <clipPath id="_clip3">
                            <path d="M864.551,740.278C867.318,742.407 869.984,744.722 872.513,747.267C875.372,750.147 877.963,753.197 880.285,756.378L880.407,756.545C890.727,770.772 895.643,787.678 895.212,804.47L895.206,804.706C894.922,814.694 892.738,824.633 888.652,833.939L888.562,834.144C884.726,842.826 879.261,850.957 872.121,858.043C854.716,875.334 831.236,882.743 808.609,880.343L808.406,880.321C791.195,878.447 774.494,870.893 761.345,857.654C748.639,844.861 741.281,828.776 739.217,812.172L739.184,811.9C736.391,788.741 743.905,764.585 761.734,746.876C767.255,741.396 773.392,736.925 779.912,733.423L780.107,733.319C788.374,728.916 797.258,726.087 806.326,724.854L806.562,724.822C826.593,722.163 847.442,727.258 864.283,740.073L864.551,740.278Z" clip-rule="nonzero"/>
                        </clipPath>
                        <g clip-path="url(#_clip3)">
                            <g transform="matrix(1.37962,0,0,1.19178,-276.307,-158.112)">
                                <circle cx="801.181" cy="777.256" r="15.746" style="fill:rgb(189,189,189);"/>
                            </g>
                            <g transform="matrix(1,0,0,1,11.9547,4.02623)">
                                <ellipse cx="838.783" cy="814.195" rx="9.562" ry="11.734" style="fill:rgb(189,189,189);"/>
                            </g>
                            <g transform="matrix(1.14936,0,0,0.901582,-113.556,84.1574)">
                                <circle cx="780.726" cy="834.65" r="20.455" style="fill:rgb(189,189,189);"/>
                            </g>
                            <circle cx="872.251" cy="782.396" r="13.84" style="fill:rgb(189,189,189);"/>
                            <g transform="matrix(1.01082,-0.293397,0.17174,0.591684,-177.763,605.423)">
                                <circle cx="859.667" cy="859.899" r="20.884" style="fill:rgb(189,189,189);"/>
                            </g>
                            <g transform="matrix(0.812247,-1.00103,0.35104,0.284838,-130.001,1321.89)">
                                <circle cx="772.494" cy="772.223" r="20.779" style="fill:rgb(189,189,189);"/>
                            </g>
                            <path d="M868.183,743.236C869.665,744.514 871.11,745.855 872.513,747.267C875.372,750.147 877.963,753.197 880.285,756.378L880.407,756.545C890.727,770.772 895.643,787.678 895.212,804.47L895.206,804.706C894.922,814.694 892.738,824.633 888.652,833.939L888.562,834.144C884.726,842.826 879.261,850.957 872.121,858.043C854.716,875.334 831.236,882.743 808.609,880.343L808.406,880.321C791.195,878.447 774.494,870.893 761.345,857.654C753.607,849.863 747.853,840.851 744.07,831.246C756.458,841.977 771.417,848.176 786.781,849.849L786.984,849.871C809.611,852.271 833.091,844.862 850.496,827.571C857.636,820.485 863.101,812.354 866.936,803.672L867.027,803.467C871.113,794.161 873.296,784.222 873.58,774.234L873.587,773.998C873.855,763.565 872.058,753.088 868.183,743.236Z" style="fill:rgb(0,0,9);fill-opacity:0.09;fill-rule:nonzero;"/>
                        </g>
                    </g>
                </g>
            </g>
        </g>
    </g>
</svg>
