<?xml version="1.0" encoding="UTF-8" standalone="no"?>
<!DOCTYPE svg PUBLIC "-//W3C//DTD SVG 1.1//EN" "http://www.w3.org/Graphics/SVG/1.1/DTD/svg11.dtd">
<svg width="100%" height="100%" viewBox="0 0 157 157" version="1.1" xmlns="http://www.w3.org/2000/svg" xmlns:xlink="http://www.w3.org/1999/xlink" xml:space="preserve" xmlns:serif="http://www.serif.com/" style="fill-rule:evenodd;clip-rule:evenodd;stroke-linejoin:round;stroke-miterlimit:2;">
    <g transform="matrix(1,0,0,1,-738.616,-724.138)">
        <g transform="matrix(1,0,0,1,53,106)">
            <g transform="matrix(1,0,0,1,-53,-106)">
                <path d="M864.551,740.278C867.318,742.407 869.984,744.722 872.513,747.267C875.372,750.147 877.963,753.197 880.285,756.378L880.407,756.545C890.727,770.772 895.643,787.678 895.212,804.47L895.206,804.706C894.922,814.694 892.738,824.633 888.652,833.939L888.562,834.144C884.726,842.826 879.261,850.957 872.121,858.043C854.716,875.334 831.236,882.743 808.609,880.343L808.406,880.321C791.195,878.447 774.494,870.893 761.345,857.654C748.639,844.861 741.281,828.776 739.217,812.172L739.184,811.9C736.391,788.741 743.905,764.585 761.734,746.876C767.255,741.396 773.392,736.925 779.912,733.423L780.107,733.319C788.374,728.916 797.258,726.087 806.326,724.854L806.562,724.822C826.593,722.163 847.442,727.258 864.283,740.073L864.551,740.278Z" style="fill:rgb(218,218,218);fill-rule:nonzero;"/>
                <clipPath id="_clip1">
                    <path d="M864.551,740.278C867.318,742.407 869.984,744.722 872.513,747.267C875.372,750.147 877.963,753.197 880.285,756.378L880.407,756.545C890.727,770.772 895.643,787.678 895.212,804.47L895.206,804.706C894.922,814.694 892.738,824.633 888.652,833.939L888.562,834.144C884.726,842.826 879.261,850.957 872.121,858.043C854.716,875.334 831.236,882.743 808.609,880.343L808.406,880.321C791.195,878.447 774.494,870.893 761.345,857.654C748.639,844.861 741.281,828.776 739.217,812.172L739.184,811.9C736.391,788.741 743.905,764.585 761.734,746.876C767.255,741.396 773.392,736.925 779.912,733.423L780.107,733.319C788.374,728.916 797.258,726.087 806.326,724.854L806.562,724.822C826.593,722.163 847.442,727.258 864.283,740.073L864.551,740.278Z" clip-rule="nonzero"/>
                </clipPath>
                <g clip-path="url(#_clip1)">
                    <g transform="matrix(1.37962,0,0,1.19178,-276.307,-158.112)">
                        <circle cx="801.181" cy="777.256" r="15.746" style="fill:rgb(189,189,189);"/>
                    </g>
                    <g transform="matrix(1,0,0,1,11.9547,4.02623)">
                        <ellipse cx="838.783" cy="814.195" rx="9.562" ry="11.734" style="fill:rgb(189,189,189);"/>
                    </g>
                    <g transform="matrix(1.14936,0,0,0.901582,-113.556,84.1574)">
                        <circle cx="780.726" cy="834.65" r="20.455" style="fill:rgb(189,189,189);"/>
                    </g>
                    <circle cx="872.251" cy="782.396" r="13.84" style="fill:rgb(189,189,189);"/>
                    <g transform="matrix(1.01082,-0.293397,0.17174,0.591684,-177.763,605.423)">
                        <circle cx="859.667" cy="859.899" r="20.884" style="fill:rgb(189,189,189);"/>
                    </g>
                    <g transform="matrix(0.812247,-1.00103,0.35104,0.284838,-130.001,1321.89)">
                        <circle cx="772.494" cy="772.223" r="20.779" style="fill:rgb(189,189,189);"/>
                    </g>
                    <path d="M868.183,743.236C869.665,744.514 871.11,745.855 872.513,747.267C875.372,750.147 877.963,753.197 880.285,756.378L880.407,756.545C890.727,770.772 895.643,787.678 895.212,804.47L895.206,804.706C894.922,814.694 892.738,824.633 888.652,833.939L888.562,834.144C884.726,842.826 879.261,850.957 872.121,858.043C854.716,875.334 831.236,882.743 808.609,880.343L808.406,880.321C791.195,878.447 774.494,870.893 761.345,857.654C753.607,849.863 747.853,840.851 744.07,831.246C756.458,841.977 771.417,848.176 786.781,849.849L786.984,849.871C809.611,852.271 833.091,844.862 850.496,827.571C857.636,820.485 863.101,812.354 866.936,803.672L867.027,803.467C871.113,794.161 873.296,784.222 873.58,774.234L873.587,773.998C873.855,763.565 872.058,753.088 868.183,743.236Z" style="fill:rgb(0,0,9);fill-opacity:0.09;fill-rule:nonzero;"/>
                </g>
            </g>
        </g>
    </g>
</svg>
