<?xml version="1.0" encoding="UTF-8" standalone="no"?>
<!DOCTYPE svg PUBLIC "-//W3C//DTD SVG 1.1//EN" "http://www.w3.org/Graphics/SVG/1.1/DTD/svg11.dtd">
<svg width="100%" height="100%" viewBox="0 0 261 261" version="1.1" xmlns="http://www.w3.org/2000/svg" xmlns:xlink="http://www.w3.org/1999/xlink" xml:space="preserve" xmlns:serif="http://www.serif.com/" style="fill-rule:evenodd;clip-rule:evenodd;stroke-linejoin:round;stroke-miterlimit:2;">
    <g transform="matrix(1,0,0,1,-1072.74,-229.301)">
        <g transform="matrix(1,0,0,1,53,106)">
            <g transform="matrix(0.918376,0,0,1.07469,55.8383,-135.062)">
                <ellipse cx="1191.49" cy="361.698" rx="141.916" ry="121.29" style="fill:rgb(253,170,104);"/>
                <clipPath id="_clip1">
                    <ellipse cx="1191.49" cy="361.698" rx="141.916" ry="121.29"/>
                </clipPath>
                <g clip-path="url(#_clip1)">
                    <g transform="matrix(1.08888,0,0,0.930502,-64.6372,116.278)">
                        <path d="M1170.17,211.773C1173.26,202.114 1136.5,181.027 1078.57,157.2C1063.63,167.702 1050.83,181.4 1041.26,197.681C1114.3,216.156 1166.72,222.593 1170.17,211.773Z" style="fill:rgb(222,151,92);fill-rule:nonzero;"/>
                    </g>
                    <g transform="matrix(1.08888,0,0,0.930502,-64.6372,116.278)">
                        <path d="M1204.41,317.32C1202.25,324.075 1219.61,336.427 1250.02,351.382C1258.92,341.605 1266.42,330.36 1272.11,317.855C1232.47,310.617 1206.8,309.86 1204.41,317.32Z" style="fill:rgb(222,151,92);fill-rule:nonzero;"/>
                    </g>
                    <g transform="matrix(1.08888,0,0,0.930502,-64.6372,116.278)">
                        <path d="M1192.77,249.021C1190.69,255.528 1230.22,273.969 1281.17,290.292C1282.93,281.872 1283.83,273.447 1283.92,265.104C1235.07,249.902 1194.78,242.712 1192.77,249.021Z" style="fill:rgb(222,151,92);fill-rule:nonzero;"/>
                    </g>
                    <g transform="matrix(1.08888,0,0,0.930502,-64.6372,116.278)">
                        <path d="M1118.22,302.847C1120.3,296.306 1080.43,277.731 1029.15,261.356C1027.2,260.736 1025.26,260.125 1023.33,259.53C1023.04,268.542 1023.68,277.46 1025.21,286.18C1074.89,301.777 1116.18,309.229 1118.22,302.847Z" style="fill:rgb(222,151,92);fill-rule:nonzero;"/>
                    </g>
                    <g transform="matrix(1.08888,0,0,0.930502,-118.512,27.0426)">
                        <path d="M1293.95,266.253C1318.28,289.933 1333.4,323.039 1333.4,359.651C1333.4,431.592 1275,490 1203.07,490C1148.01,490 1100.87,455.774 1081.8,407.452C1105.29,430.317 1137.35,444.403 1172.67,444.403C1244.61,444.403 1303.01,385.996 1303.01,314.054C1303.01,297.184 1299.8,281.057 1293.95,266.253Z" style="fill-opacity:0.1;"/>
                    </g>
                </g>
            </g>
        </g>
    </g>
</svg>
