<?xml version="1.0" encoding="UTF-8" standalone="no"?>
<!DOCTYPE svg PUBLIC "-//W3C//DTD SVG 1.1//EN" "http://www.w3.org/Graphics/SVG/1.1/DTD/svg11.dtd">
<svg width="100%" height="100%" viewBox="0 0 315 315" version="1.1" xmlns="http://www.w3.org/2000/svg" xmlns:xlink="http://www.w3.org/1999/xlink" xml:space="preserve" xmlns:serif="http://www.serif.com/" style="fill-rule:evenodd;clip-rule:evenodd;stroke-linejoin:round;stroke-miterlimit:2;">
    <g transform="matrix(1,0,0,1,-578.69,-238.956)">
        <g transform="matrix(1,0,0,1,53,106)">
            <g transform="matrix(1,0,0,1,-53,-106)">
                <path d="M641.199,521.832C636.516,518.294 632.061,514.466 627.807,510.434L627.592,510.23C618.486,501.569 610.434,491.81 603.607,481.193L603.239,480.618C587.712,456.244 578.69,427.329 578.69,396.292C578.69,309.392 649.134,238.956 736.023,238.956C777.258,238.956 814.768,254.84 842.826,280.788L843.189,281.125C874.042,309.854 893.359,350.81 893.359,396.292C893.359,483.187 822.915,553.625 736.023,553.625C700.508,553.625 667.753,541.85 641.422,522L641.199,521.832Z" style="fill:rgb(231,122,97);fill-rule:nonzero;"/>
                <clipPath id="_clip1">
                    <path d="M641.199,521.832C636.516,518.294 632.061,514.466 627.807,510.434L627.592,510.23C618.486,501.569 610.434,491.81 603.607,481.193L603.239,480.618C587.712,456.244 578.69,427.329 578.69,396.292C578.69,309.392 649.134,238.956 736.023,238.956C777.258,238.956 814.768,254.84 842.826,280.788L843.189,281.125C874.042,309.854 893.359,350.81 893.359,396.292C893.359,483.187 822.915,553.625 736.023,553.625C700.508,553.625 667.753,541.85 641.422,522L641.199,521.832Z" clip-rule="nonzero"/>
                </clipPath>
                <g clip-path="url(#_clip1)">
                    <g transform="matrix(1,0,0,1,53,106)">
                        <path d="M631.353,296.46C631.353,299.87 628.586,302.628 625.179,302.628L555.769,302.628C552.361,302.628 549.598,299.87 549.598,296.46C549.598,293.05 552.361,290.292 555.769,290.292L625.179,290.292C628.586,290.292 631.353,293.05 631.353,296.46Z" style="fill:rgb(211,94,75);fill-rule:nonzero;"/>
                    </g>
                    <g transform="matrix(1,0,0,1,53,106)">
                        <path d="M782.515,213.936C782.515,216.918 780.099,219.334 777.116,219.334L732.383,219.334C729.4,219.334 726.984,216.918 726.984,213.936C726.984,210.954 729.4,208.538 732.383,208.538L777.116,208.538C780.099,208.538 782.515,210.954 782.515,213.936Z" style="fill:rgb(211,94,75);fill-rule:nonzero;"/>
                    </g>
                    <g transform="matrix(1,0,0,1,53,106)">
                        <path d="M767.09,233.987C767.09,236.972 764.674,239.388 761.691,239.388L716.186,239.388C713.206,239.388 710.79,236.972 710.79,233.987C710.79,231.007 713.206,228.591 716.186,228.591L761.691,228.591C764.674,228.591 767.09,231.007 767.09,233.987Z" style="fill:rgb(211,94,75);fill-rule:nonzero;"/>
                    </g>
                    <g transform="matrix(1,0,0,1,53,106)">
                        <path d="M818.764,281.807C818.764,283.513 817.383,284.891 815.677,284.891L770.174,284.891C768.47,284.891 767.09,283.513 767.09,281.807C767.09,280.101 768.47,278.723 770.174,278.723L815.677,278.723C817.383,278.723 818.764,280.101 818.764,281.807Z" style="fill:rgb(211,94,75);fill-rule:nonzero;"/>
                    </g>
                    <g transform="matrix(1,0,0,1,53,106)">
                        <path d="M693.048,181.93C693.048,185.123 690.459,187.714 687.266,187.714L632.505,187.714C629.314,187.714 626.724,185.123 626.724,181.93C626.724,178.736 629.314,176.145 632.505,176.145L687.266,176.145C690.459,176.145 693.048,178.736 693.048,181.93Z" style="fill:rgb(211,94,75);fill-rule:nonzero;"/>
                    </g>
                    <g transform="matrix(1,0,0,1,53,106)">
                        <path d="M738.938,365.101C738.938,368.511 736.177,371.269 732.77,371.269L632.892,371.269C629.484,371.269 626.724,368.511 626.724,365.101C626.724,361.691 629.484,358.933 632.892,358.933L732.77,358.933C736.177,358.933 738.938,361.691 738.938,365.101Z" style="fill:rgb(211,94,75);fill-rule:nonzero;"/>
                    </g>
                    <g transform="matrix(1,0,0,1,53,106)">
                        <path d="M726.984,391.709C726.984,394.052 725.088,395.951 722.742,395.951L670.296,395.951C667.953,395.951 666.056,394.052 666.056,391.709C666.056,389.366 667.953,387.466 670.296,387.466L722.742,387.466C725.088,387.466 726.984,389.366 726.984,391.709Z" style="fill:rgb(211,94,75);fill-rule:nonzero;"/>
                    </g>
                    <g transform="matrix(1,0,0,1,53,106)">
                        <path d="M696.521,281.614C696.521,286.41 692.636,290.292 687.845,290.292C683.05,290.292 679.167,286.41 679.167,281.614L679.167,279.683C679.167,274.888 683.05,271.01 687.845,271.01C692.636,271.01 696.521,274.888 696.521,279.683L696.521,281.614Z" style="fill:rgb(211,94,75);fill-rule:nonzero;"/>
                    </g>
                    <g transform="matrix(1,0,0,1,53,106)">
                        <path d="M767.09,335.795C767.09,339.625 763.979,342.735 760.149,342.735L729.299,342.735C725.466,342.735 722.358,339.625 722.358,335.795C722.358,331.96 725.466,328.85 729.299,328.85L760.149,328.85C763.979,328.85 767.09,331.96 767.09,335.795Z" style="fill:rgb(211,94,75);fill-rule:nonzero;"/>
                    </g>
                    <g transform="matrix(1,0,0,1,53,106)">
                        <path d="M631.353,247.873C631.353,250.855 628.934,253.269 625.951,253.269L595.873,253.269C592.891,253.269 590.473,250.855 590.473,247.873C590.473,244.888 592.891,242.475 595.873,242.475L625.951,242.475C628.934,242.475 631.353,244.888 631.353,247.873Z" style="fill:rgb(211,94,75);fill-rule:nonzero;"/>
                    </g>
                    <g transform="matrix(1,0,0,1,53,106)">
                        <path d="M789.826,174.788C795.556,191.677 798.71,209.761 798.71,228.591C798.71,321.02 723.783,395.951 631.353,395.951C602.067,395.951 574.552,388.406 550.607,375.193C557.488,385.893 565.613,395.722 574.807,404.434L588.422,416C614.753,435.85 647.508,447.625 683.023,447.625C769.915,447.625 840.359,377.187 840.359,290.292C840.359,244.632 820.89,203.533 789.826,174.788Z" style="fill-opacity:0.07;fill-rule:nonzero;"/>
                    </g>
                </g>
            </g>
        </g>
    </g>
</svg>
