<?xml version="1.0" encoding="UTF-8" standalone="no"?>
<!DOCTYPE svg PUBLIC "-//W3C//DTD SVG 1.1//EN" "http://www.w3.org/Graphics/SVG/1.1/DTD/svg11.dtd">
<svg width="100%" height="100%" viewBox="0 0 516 260" version="1.1" xmlns="http://www.w3.org/2000/svg" xmlns:xlink="http://www.w3.org/1999/xlink" xml:space="preserve" xmlns:serif="http://www.serif.com/" style="fill-rule:evenodd;clip-rule:evenodd;stroke-linejoin:round;stroke-miterlimit:2;">
    <g transform="matrix(1,0,0,1,-150.996,-677.83)">
        <g transform="matrix(1,0,0,1,53,106)">
            <g transform="matrix(0.965727,0,0,0.980684,-25.3912,-73.9252)">
                <ellipse cx="395.055" cy="790.943" rx="134.247" ry="132.469" style="fill:rgb(252,235,191);"/>
                <clipPath id="_clip1">
                    <ellipse cx="395.055" cy="790.943" rx="134.247" ry="132.469"/>
                </clipPath>
                <g clip-path="url(#_clip1)">
                    <g transform="matrix(0.80041,-0.208397,0.0557996,0.207828,15.3121,640.857)">
                        <path d="M395.929,481.78C470.021,481.78 529.302,717.831 529.302,790.943C529.302,864.054 469.148,923.412 395.055,923.412C320.963,923.412 260.808,864.054 260.808,790.943C260.808,717.831 321.836,481.78 395.929,481.78Z" style="fill:rgb(235,221,185);"/>
                    </g>
                    <g transform="matrix(1.03549,0,0,1.0197,-28.5886,-32.7065)">
                        <path d="M487.128,703.982C504.782,715.943 516.69,728.975 518.844,737.123C524.451,758.329 474.63,789.921 407.657,807.628C340.685,825.336 281.76,822.495 276.153,801.289C273.953,792.968 278.322,775.124 288.493,755.438C286.521,761.036 285.859,765.59 286.617,768.456C290.557,783.357 340.253,783.161 397.525,768.018C454.798,752.876 498.097,728.484 494.157,713.583C493.452,710.919 491.002,707.58 487.128,703.982Z" style="fill:rgb(248,227,173);"/>
                    </g>
                    <g transform="matrix(1.19081,0,0,0.992901,-76.9106,48.6579)">
                        <path d="M504.69,699.364C503.986,696.699 516.711,737.501 514.207,751.463C510.31,773.196 473.545,805.626 406.573,823.333C339.6,841.041 299.559,844.54 293.952,823.333C291.752,815.012 282.847,765.921 283.605,768.787C287.544,783.688 340.253,783.161 397.525,768.018C454.798,752.876 508.63,714.265 504.69,699.364Z" style="fill:rgb(255,249,179);"/>
                    </g>
                </g>
            </g>
            <g transform="matrix(1,0,0,1,-53,-106)">
                <path d="M483.373,701.259C516.856,724.753 538.771,763.702 538.771,807.74C538.771,879.439 480.678,937.65 409.125,937.65C365.277,937.65 326.483,915.79 303.012,882.357C324.054,897.122 349.656,905.786 377.261,905.786C448.814,905.786 506.907,847.576 506.907,775.876C506.907,748.114 498.197,722.374 483.373,701.259Z" style="fill-opacity:0.07;"/>
            </g>
            <path d="M612.95,627.816C606.096,603.599 540.727,599.5 451.779,614.027C455.267,617.821 458.539,621.837 461.576,626.063C522.63,618.466 565.67,622.99 570.648,640.57C575.616,658.114 541.476,684.456 485.695,709.934C453.336,724.718 413.704,739.209 370.178,751.526C326.655,763.844 285.309,772.276 250.007,776.645C189.143,784.18 146.265,779.637 141.299,762.093C136.322,744.513 170.608,718.108 226.587,692.575C226.958,687.386 227.642,682.249 228.623,677.192C145.257,711.439 91.73,749.188 98.585,773.404C105.408,797.504 170.186,801.674 258.476,787.399C293.658,781.711 332.565,773.094 373.041,761.64C413.513,750.18 451.168,737.129 484.116,723.535C566.792,689.416 619.773,651.92 612.95,627.816Z" style="fill:rgb(252,208,93);fill-opacity:0.69;fill-rule:nonzero;"/>
            <path d="M181.881,750.18C178.854,739.482 196.132,724.144 226.413,708.082C226.207,703.928 226.209,699.787 226.405,695.686C174.431,719.455 142.787,743.532 147.274,759.383C151.735,775.145 190.868,779.11 247.056,772.284C282.376,767.992 324.43,759.442 368.858,746.866C413.292,734.29 453.592,719.533 485.919,704.677C537.351,681.043 568.598,657.159 564.136,641.393C559.648,625.542 520.078,621.623 463.363,628.615C465.678,632.01 467.849,635.532 469.85,639.177C504.058,636.988 526.815,640.996 529.841,651.69C532.857,662.352 515.731,677.607 485.679,693.599C456.196,709.295 414.268,725.696 366.682,739.164C319.097,752.633 274.791,760.64 241.454,762.725C207.478,764.854 184.896,760.838 181.881,750.18Z" style="fill:rgb(252,208,93);fill-opacity:0.69;fill-rule:nonzero;"/>
        </g>
    </g>
</svg>
