<?xml version="1.0" encoding="UTF-8" standalone="no"?>
<!DOCTYPE svg PUBLIC "-//W3C//DTD SVG 1.1//EN" "http://www.w3.org/Graphics/SVG/1.1/DTD/svg11.dtd">
<svg width="100%" height="100%" viewBox="0 0 256 256" version="1.1" xmlns="http://www.w3.org/2000/svg" xmlns:xlink="http://www.w3.org/1999/xlink" xml:space="preserve" xmlns:serif="http://www.serif.com/" style="fill-rule:evenodd;clip-rule:evenodd;stroke-linejoin:round;stroke-miterlimit:2;">
    <g transform="matrix(1,0,0,1,-181.699,-235.663)">
        <g transform="matrix(1,0,0,1,53,106)">
            <g transform="matrix(1,0,0,1,-53,-106)">
                <path d="M431.564,400.281C426.318,417.692 417.499,433.431 406.005,446.731L405.808,446.959C397.443,456.6 387.677,464.949 376.853,471.706L376.591,471.869C354.27,485.721 327.496,492.849 299.297,490.627C271.796,488.454 247.049,477.697 227.407,461.223L227.055,460.927C197.163,435.675 179.282,397.101 181.964,355.216L181.972,355.095C182.007,354.493 182.019,353.903 182.067,353.299C183.065,340.613 185.913,328.525 190.281,317.235L190.455,316.788C194.123,307.415 198.861,298.611 204.504,290.505L204.651,290.294C229.741,254.413 272.6,232.372 319.392,236.065C389.682,241.617 442.173,303.099 436.623,373.394C436.479,375.209 436.286,377.01 436.065,378.807L436.021,379.166C435.139,386.283 433.672,393.197 431.687,399.869L431.564,400.281Z" style="fill:rgb(1,160,199);fill-rule:nonzero;"/>
                <clipPath id="_clip1">
                    <path d="M431.564,400.281C426.318,417.692 417.499,433.431 406.005,446.731L405.808,446.959C397.443,456.6 387.677,464.949 376.853,471.706L376.591,471.869C354.27,485.721 327.496,492.849 299.297,490.627C271.796,488.454 247.049,477.697 227.407,461.223L227.055,460.927C197.163,435.675 179.282,397.101 181.964,355.216L181.972,355.095C182.007,354.493 182.019,353.903 182.067,353.299C183.065,340.613 185.913,328.525 190.281,317.235L190.455,316.788C194.123,307.415 198.861,298.611 204.504,290.505L204.651,290.294C229.741,254.413 272.6,232.372 319.392,236.065C389.682,241.617 442.173,303.099 436.623,373.394C436.479,375.209 436.286,377.01 436.065,378.807L436.021,379.166C435.139,386.283 433.672,393.197 431.687,399.869L431.564,400.281Z" clip-rule="nonzero"/>
                </clipPath>
                <g clip-path="url(#_clip1)">
                    <g transform="matrix(1,0,0,1,53,106)">
                        <path d="M325.951,184.126C312.146,177.447 288.45,176.523 278.457,184.93C205.465,265.609 434.705,235.787 325.951,184.126Z" style="fill:rgb(1,143,179);fill-rule:nonzero;"/>
                    </g>
                    <g transform="matrix(1,0,0,1,53,106)">
                        <path d="M227.344,205.057C228.001,196.715 201.685,187.832 168.559,185.217C162.648,184.752 156.932,184.523 151.504,184.505C145.772,192.739 140.973,201.694 137.281,211.235C145.792,213.124 155.633,214.596 166.176,215.425C199.3,218.04 226.684,213.401 227.344,205.057Z" style="fill:rgb(1,143,179);fill-rule:nonzero;"/>
                    </g>
                    <g transform="matrix(1,0,0,1,53,106)">
                        <path d="M174.407,355.223C196.512,351.194 223.485,349.903 252.397,352.186C279.036,354.283 303.575,359.126 323.853,365.706C334.762,358.896 344.596,350.469 353.005,340.731C352.337,340.685 351.674,340.64 351.001,340.588C280.644,335.028 224.474,319.551 225.544,306.012C226.611,292.473 284.515,285.997 354.873,291.555C363.027,292.199 370.982,292.974 378.687,293.869C380.672,287.197 382.139,280.283 383.021,273.166C342.785,260.657 296.872,251.737 247.752,247.857C205.892,244.551 165.733,245.211 128.964,249.216C126.271,291.265 144.303,329.977 174.407,355.223Z" style="fill:rgb(1,143,179);fill-rule:nonzero;"/>
                    </g>
                    <path d="M400.709,274.164C425.516,299.6 439.639,335.196 436.623,373.394C436.479,375.209 436.286,377.01 436.065,378.807L436.021,379.166C435.139,386.283 433.672,393.197 431.687,399.869L431.564,400.281C426.318,417.692 417.499,433.431 406.005,446.731L405.808,446.959C397.443,456.6 387.677,464.949 376.853,471.706L376.591,471.869C354.27,485.721 327.496,492.849 299.297,490.627C271.796,488.454 247.049,477.697 227.407,461.223L227.055,460.927C219.737,454.745 213.139,447.765 207.385,440.13C221.321,446.168 236.476,450.048 252.47,451.312C283.761,453.778 313.472,445.868 338.24,430.497L338.532,430.316C350.543,422.818 361.379,413.553 370.662,402.855L370.881,402.602C383.635,387.843 393.421,370.378 399.242,351.057L399.379,350.6C401.582,343.197 403.21,335.524 404.189,327.627L404.238,327.228C404.483,325.234 404.696,323.236 404.857,321.222C406.141,304.95 404.623,289.104 400.709,274.164Z" style="fill:rgb(0,10,12);fill-opacity:0.14;fill-rule:nonzero;"/>
                </g>
            </g>
        </g>
    </g>
</svg>
