<?xml version="1.0" encoding="UTF-8" standalone="no"?>
<!DOCTYPE svg PUBLIC "-//W3C//DTD SVG 1.1//EN" "http://www.w3.org/Graphics/SVG/1.1/DTD/svg11.dtd">
<svg width="100%" height="100%" viewBox="0 0 315 315" version="1.1" xmlns="http://www.w3.org/2000/svg" xmlns:xlink="http://www.w3.org/1999/xlink" xml:space="preserve" xmlns:serif="http://www.serif.com/" style="fill-rule:evenodd;clip-rule:evenodd;stroke-linejoin:round;stroke-miterlimit:2;">
    <g transform="matrix(1,0,0,1,-1530.08,-353.872)">
        <g transform="matrix(1,0,0,1,53,106)">
            <g transform="matrix(1,0,0,1,-53,-106)">
                <path d="M1554.63,595.534C1539.1,571.16 1530.08,542.245 1530.08,511.208C1530.08,424.308 1600.52,353.872 1687.41,353.872C1728.65,353.872 1766.16,369.756 1794.21,395.704L1794.58,396.041C1825.43,424.77 1844.75,465.726 1844.75,511.208C1844.75,598.103 1774.3,668.541 1687.41,668.541C1651.9,668.541 1619.14,656.766 1592.81,636.916L1579.19,625.35C1570,616.638 1561.88,606.809 1555,596.109L1554.63,595.534Z" style="fill:rgb(98,186,198);fill-rule:nonzero;"/>
                <clipPath id="_clip1">
                    <path d="M1554.63,595.534C1539.1,571.16 1530.08,542.245 1530.08,511.208C1530.08,424.308 1600.52,353.872 1687.41,353.872C1728.65,353.872 1766.16,369.756 1794.21,395.704L1794.58,396.041C1825.43,424.77 1844.75,465.726 1844.75,511.208C1844.75,598.103 1774.3,668.541 1687.41,668.541C1651.9,668.541 1619.14,656.766 1592.81,636.916L1579.19,625.35C1570,616.638 1561.88,606.809 1555,596.109L1554.63,595.534Z" clip-rule="nonzero"/>
                </clipPath>
                <g clip-path="url(#_clip1)">
                    <g transform="matrix(0.702081,0.712097,-0.712097,0.702081,1394.05,-129.223)">
                        <path d="M631.353,296.46C631.353,299.87 628.586,302.628 625.179,302.628L555.769,302.628C552.361,302.628 549.598,299.87 549.598,296.46C549.598,293.05 552.361,290.292 555.769,290.292L625.179,290.292C628.586,290.292 631.353,293.05 631.353,296.46Z" style="fill:rgb(70,175,174);fill-rule:nonzero;"/>
                    </g>
                    <g transform="matrix(0.702081,0.712097,-0.712097,0.702081,1419.05,-178.082)">
                        <path d="M782.515,213.936C782.515,216.918 780.099,219.334 777.116,219.334L732.383,219.334C729.4,219.334 726.984,216.918 726.984,213.936C726.984,210.954 729.4,208.538 732.383,208.538L777.116,208.538C780.099,208.538 782.515,210.954 782.515,213.936Z" style="fill:rgb(70,175,174);fill-rule:nonzero;"/>
                    </g>
                    <g transform="matrix(0.702081,0.712097,-0.712097,0.702081,1419.05,-178.082)">
                        <path d="M767.09,233.987C767.09,236.972 764.674,239.388 761.691,239.388L716.186,239.388C713.206,239.388 710.79,236.972 710.79,233.987C710.79,231.007 713.206,228.591 716.186,228.591L761.691,228.591C764.674,228.591 767.09,231.007 767.09,233.987Z" style="fill:rgb(70,175,174);fill-rule:nonzero;"/>
                    </g>
                    <g transform="matrix(1.2534,1.27128,-1.91704,1.89008,1268.98,-927.436)">
                        <path d="M818.764,281.807C818.764,283.513 817.383,284.891 815.677,284.891L770.174,284.891C768.47,284.891 767.09,283.513 767.09,281.807C767.09,280.101 768.47,278.723 770.174,278.723L815.677,278.723C817.383,278.723 818.764,280.101 818.764,281.807Z" style="fill:rgb(70,175,174);fill-rule:nonzero;"/>
                    </g>
                    <g transform="matrix(0.702081,0.712097,-0.712097,0.702081,1414.51,-184.136)">
                        <path d="M631.353,410.218C631.353,407.024 628.759,404.434 625.565,404.434L574.807,404.434C579.128,408.53 583.657,412.415 588.422,416L625.565,416C628.759,416 631.353,413.412 631.353,410.218Z" style="fill:rgb(70,175,174);fill-rule:nonzero;"/>
                    </g>
                    <g transform="matrix(0.76502,0.775933,-1.16298,1.14662,1459.03,-296.393)">
                        <path d="M693.048,181.93C693.048,185.123 690.459,187.714 687.266,187.714L632.505,187.714C629.314,187.714 626.724,185.123 626.724,181.93C626.724,178.736 629.314,176.145 632.505,176.145L687.266,176.145C690.459,176.145 693.048,178.736 693.048,181.93Z" style="fill:rgb(70,175,174);fill-rule:nonzero;"/>
                    </g>
                    <g transform="matrix(0.905434,0.91835,-1.22139,1.20421,1511.97,-636.571)">
                        <path d="M738.938,365.101C738.938,368.511 736.177,371.269 732.77,371.269L632.892,371.269C629.484,371.269 626.724,368.511 626.724,365.101C626.724,361.691 629.484,358.933 632.892,358.933L732.77,358.933C736.177,358.933 738.938,361.691 738.938,365.101Z" style="fill:rgb(70,175,174);fill-rule:nonzero;"/>
                    </g>
                    <g transform="matrix(0.702081,0.712097,-0.712097,0.702081,1419.05,-178.082)">
                        <path d="M726.984,391.709C726.984,394.052 725.088,395.951 722.742,395.951L670.296,395.951C667.953,395.951 666.056,394.052 666.056,391.709C666.056,389.366 667.953,387.466 670.296,387.466L722.742,387.466C725.088,387.466 726.984,389.366 726.984,391.709Z" style="fill:rgb(70,175,174);fill-rule:nonzero;"/>
                    </g>
                    <g transform="matrix(1.39031,1.41015,-1.06135,1.04642,1080.45,-725.776)">
                        <path d="M696.521,281.614C696.521,286.41 692.636,290.292 687.845,290.292C683.05,290.292 679.167,286.41 679.167,281.614L679.167,279.683C679.167,274.888 683.05,271.01 687.845,271.01C692.636,271.01 696.521,274.888 696.521,279.683L696.521,281.614Z" style="fill:rgb(70,175,174);fill-rule:nonzero;"/>
                    </g>
                    <g transform="matrix(0.945304,0.958788,-0.895384,0.882791,1263.37,-480.192)">
                        <path d="M767.09,335.795C767.09,339.625 763.979,342.735 760.149,342.735L729.299,342.735C725.466,342.735 722.358,339.625 722.358,335.795C722.358,331.96 725.466,328.85 729.299,328.85L760.149,328.85C763.979,328.85 767.09,331.96 767.09,335.795Z" style="fill:rgb(70,175,174);fill-rule:nonzero;"/>
                    </g>
                    <g transform="matrix(0.702081,0.712097,-0.712097,0.702081,1390.68,-142.022)">
                        <path d="M631.353,247.873C631.353,250.855 628.934,253.269 625.951,253.269L595.873,253.269C592.891,253.269 590.473,250.855 590.473,247.873C590.473,244.888 592.891,242.475 595.873,242.475L625.951,242.475C628.934,242.475 631.353,244.888 631.353,247.873Z" style="fill:rgb(70,175,174);fill-rule:nonzero;"/>
                    </g>
                    <g transform="matrix(1,0,0,1,1004.39,220.916)">
                        <path d="M789.826,174.788C795.556,191.677 798.71,209.761 798.71,228.591C798.71,321.02 723.783,395.951 631.353,395.951C602.067,395.951 574.552,388.406 550.607,375.193C557.488,385.893 565.613,395.722 574.807,404.434L588.422,416C614.753,435.85 647.508,447.625 683.023,447.625C769.915,447.625 840.359,377.187 840.359,290.292C840.359,244.632 820.89,203.533 789.826,174.788Z" style="fill-opacity:0.11;fill-rule:nonzero;"/>
                    </g>
                </g>
            </g>
        </g>
    </g>
</svg>
