<?xml version="1.0" encoding="UTF-8" standalone="no"?>
<!DOCTYPE svg PUBLIC "-//W3C//DTD SVG 1.1//EN" "http://www.w3.org/Graphics/SVG/1.1/DTD/svg11.dtd">
<svg width="100%" height="100%" viewBox="0 0 288 288" version="1.1" xmlns="http://www.w3.org/2000/svg" xmlns:xlink="http://www.w3.org/1999/xlink" xml:space="preserve" xmlns:serif="http://www.serif.com/" style="fill-rule:evenodd;clip-rule:evenodd;stroke-linejoin:round;stroke-miterlimit:2;">
    <g transform="matrix(1,0,0,1,-1395.26,-41.1871)">
        <g transform="matrix(1,0,0,1,53,106)">
            <g transform="matrix(1.12755,0,0,1.12755,1196.85,-211.014)">
                <g transform="matrix(0.947619,0,0,1.00892,-1208.37,71.6778)">
                    <ellipse cx="1545.84" cy="184.026" rx="134.58" ry="126.554" style="fill:rgb(77,162,219);"/>
                    <clipPath id="_clip1">
                        <ellipse cx="1545.84" cy="184.026" rx="134.58" ry="126.554"/>
                    </clipPath>
                    <g clip-path="url(#_clip1)">
                        <g transform="matrix(0.933059,0,0,0.928755,1311.4,-61.8259)">
                            <path d="M296.411,166.345C296.765,150.658 265.421,153.648 249.118,150.257C183.893,136.688 200.708,180.164 187.468,217.28C181.647,233.6 166.216,247.443 187.468,257.345C200.352,263.348 230.772,220.555 251.032,221.389C297.966,223.322 295.747,195.85 296.411,166.345Z" style="fill:rgb(99,218,173);fill-rule:nonzero;"/>
                        </g>
                        <g transform="matrix(1.05528,0,0,0.99116,-78.2887,0.508082)">
                            <path d="M1499.17,190.067C1509.54,190.067 1531.77,194.485 1545.05,200.886C1558.14,207.201 1566.61,214.725 1569.16,223.353C1571.71,231.982 1556.65,239.002 1550.84,246.944C1545.21,254.642 1546.07,258.863 1543.11,266.805C1540.28,274.371 1550.48,301.848 1542.56,300.31C1534.61,298.769 1520.76,283.031 1512.93,272.125C1506.71,263.455 1497.99,243.529 1495.62,234.876C1493.5,227.138 1476.37,222.665 1474.24,217C1472.58,212.604 1468.21,200.099 1470.87,196.225C1473.71,192.076 1492.63,190.067 1499.17,190.067Z" style="fill:rgb(99,218,173);"/>
                        </g>
                        <g transform="matrix(0.695337,0.745568,-0.793798,0.653089,532.032,-1082.09)">
                            <path d="M1499.17,190.067C1509.54,190.067 1531.77,194.485 1545.05,200.886C1558.14,207.201 1566.61,214.725 1569.16,223.353C1571.71,231.982 1556.65,239.002 1550.84,246.944C1545.21,254.642 1546.07,258.863 1543.11,266.805C1540.28,274.371 1550.48,301.848 1542.56,300.31C1534.61,298.769 1520.76,283.031 1512.93,272.125C1506.71,263.455 1497.99,243.529 1495.62,234.876C1493.5,227.138 1476.37,222.665 1474.24,217C1472.58,212.604 1468.21,200.099 1470.87,196.225C1473.71,192.076 1492.63,190.067 1499.17,190.067Z" style="fill:rgb(99,218,173);"/>
                        </g>
                        <g transform="matrix(0.971586,0,0,0.945355,62.685,11.8193)">
                            <path d="M1637.47,121.61C1625.21,124.129 1604.84,150.21 1593.02,158.95C1574.77,172.433 1575.06,190.26 1610.61,193.737C1619.95,194.651 1641.99,164.347 1648.14,170.508C1658.9,181.292 1647.77,177.773 1645.7,185.732C1642.65,197.454 1638.27,213.093 1638.72,222.313C1639.69,241.898 1653.97,244.001 1655.25,245.22C1666.71,256.138 1696.25,213.197 1679.39,173.53C1675.33,163.985 1673.36,152.222 1666.59,143.836C1659.6,135.183 1649.43,119.152 1637.47,121.61Z" style="fill:rgb(99,218,173);"/>
                        </g>
                    </g>
                </g>
                <g transform="matrix(0.886881,0,0,0.886881,-1108.47,93.135)">
                    <path d="M1630.8,74.324C1662.59,100.736 1682.85,140.595 1682.85,185.155C1682.85,264.613 1618.42,329.123 1539.06,329.123C1491.66,329.123 1449.59,306.115 1423.39,270.665C1443.32,280.187 1465.62,285.519 1489.16,285.519C1573.6,285.519 1642.16,216.877 1642.16,132.329C1642.16,111.801 1638.12,92.211 1630.8,74.324Z" style="fill:rgb(23,85,134);fill-opacity:0.26;"/>
                </g>
            </g>
        </g>
    </g>
</svg>
