<?xml version="1.0" encoding="UTF-8" standalone="no"?>
<!DOCTYPE svg PUBLIC "-//W3C//DTD SVG 1.1//EN" "http://www.w3.org/Graphics/SVG/1.1/DTD/svg11.dtd">
<svg width="100%" height="100%" viewBox="0 0 304 304" version="1.1" xmlns="http://www.w3.org/2000/svg" xmlns:xlink="http://www.w3.org/1999/xlink" xml:space="preserve" xmlns:serif="http://www.serif.com/" style="fill-rule:evenodd;clip-rule:evenodd;stroke-linejoin:round;stroke-miterlimit:2;">
    <g transform="matrix(1,0,0,1,-1003.05,-572.22)">
        <g transform="matrix(1,0,0,1,53,106)">
            <g transform="matrix(1.06886,0,0,1.2506,-171.789,165.566)">
                <ellipse cx="1191.49" cy="361.698" rx="141.916" ry="121.29" style="fill:rgb(240,211,133);"/>
                <clipPath id="_clip1">
                    <ellipse cx="1191.49" cy="361.698" rx="141.916" ry="121.29"/>
                </clipPath>
                <g clip-path="url(#_clip1)">
                    <g transform="matrix(0.925945,-0.114451,0.149363,0.882695,6.02345,-158.497)">
                        <rect x="983.536" y="653.611" width="356.228" height="163.566" style="fill:rgb(251,240,218);"/>
                    </g>
                    <g transform="matrix(1.02467,0,0,0.799615,70.5133,-186.084)">
                        <path d="M1123.15,576.709C1084.43,590.788 1040,576.289 996.811,579.624C985.923,590.88 976.788,603.831 969.774,618.017C1045.91,608.126 1124.19,598.24 1200.99,588.354C1200.37,580.323 1199.34,572.409 1197.91,564.632C1195.91,563.1 1193.91,561.576 1191.84,560.144C1168.3,563.457 1145.25,568.671 1123.15,576.709Z" style="fill:rgb(225,131,77);fill-rule:nonzero;"/>
                    </g>
                    <g transform="matrix(1.18876,0,0,0.799615,-84.8025,-186.084)">
                        <path d="M1201.71,607.685C1151.29,593.068 1112.71,626.039 959.356,645.783C957.034,654.425 955.487,663.371 954.712,672.545C994.166,655.407 1088.41,633.643 1199.44,638.402C1200.86,628.354 1201.64,618.104 1201.71,607.685Z" style="fill:rgb(225,131,77);fill-rule:nonzero;"/>
                    </g>
                    <g transform="matrix(1.60341,0,0,0.799615,-527.627,-186.084)">
                        <path d="M1013.3,805.196C1047.94,778.907 1109.77,771.376 1147.47,783.233C1161.97,770.735 1149.68,752.533 1160.67,736.803C1098.63,744.135 1035.98,757.19 973.242,758.803C983.318,776.874 997.017,792.633 1013.3,805.196Z" style="fill:rgb(225,131,77);fill-rule:nonzero;"/>
                    </g>
                    <g transform="matrix(1.31486,-0.0870523,0.103906,1.14641,-277.975,-342.258)">
                        <path d="M954.253,689.967C954.535,698.851 955.542,707.544 957.285,715.977C1000.06,711.296 1043.45,710.096 1088.47,715.397C1118.51,719.4 1148.54,714.135 1178.57,706.479C1181.42,700.646 1184.01,694.657 1186.37,688.558C1174.4,691.487 1162.25,693.355 1149.73,693.355C1085.99,697.348 1018.59,679.434 954.253,689.967Z" style="fill:rgb(225,131,77);fill-rule:nonzero;"/>
                    </g>
                    <g transform="matrix(0.935578,0,1.29838e-17,0.799615,111.137,-217.148)">
                        <path d="M1260.7,615.405C1288.91,642.958 1306.43,681.402 1306.43,723.906C1306.43,807.624 1238.46,875.592 1154.74,875.592C1107.46,875.592 1065.2,853.91 1037.36,819.947C1058.11,829.393 1081.16,834.654 1105.42,834.654C1196.26,834.654 1270.01,760.905 1270.01,670.067C1270.01,650.909 1266.73,632.511 1260.7,615.405Z" style="fill:rgb(59,56,48);fill-opacity:0.16;"/>
                    </g>
                </g>
            </g>
        </g>
    </g>
</svg>
